<svg width="114" height="107" viewBox="0 0 114 107" fill="none" xmlns="http://www.w3.org/2000/svg">
<path opacity="0.995" fill-rule="evenodd" clip-rule="evenodd" d="M113.724 -0.00427246C93.4178 0.559103 77.3382 9.0591 65.4852 25.4957C61.7593 31.0819 58.9655 37.1235 57.1039 43.6207C52.4499 27.5844 42.9304 15.4385 28.5456 7.18323C19.7901 2.43798 10.4362 0.0421025 0.48391 -0.00427246C0.48391 8.8291 0.48391 17.6624 0.48391 26.4957C9.9464 26.6037 17.9138 30.1037 24.386 36.9957C29.0372 42.3426 31.7896 48.5717 32.6431 55.6832C32.6017 55.7874 32.5602 55.8916 32.5189 55.9957C22.7908 49.6506 12.1125 46.4424 0.48391 46.3707C0.48391 55.2041 0.48391 64.0374 0.48391 72.8707C12.3647 73.1719 21.5323 78.2969 27.9868 88.2457C31.2856 93.7789 32.8791 99.7789 32.7672 106.246C48.9917 106.246 65.2161 106.246 81.4406 106.246C81.4265 95.0459 85.7724 86.0251 94.4781 79.1832C100.2 74.9925 106.615 72.8884 113.724 72.8707C113.724 64.0374 113.724 55.2041 113.724 46.3707C102.095 46.4424 91.417 49.6506 81.6889 55.9957C82.1697 49.903 84.2184 44.403 87.8352 39.4957C93.1574 32.5742 100.131 28.3451 108.757 26.8082C110.405 26.5797 112.061 26.4756 113.724 26.4957C113.724 17.6624 113.724 8.8291 113.724 -0.00427246ZM76.2256 60.1207C63.4986 59.975 50.7508 59.9541 37.9822 60.0582C47.332 68.082 53.706 78.0611 57.1039 89.9957C60.4858 78.0586 66.8598 68.1002 76.2256 60.1207Z" fill="#FEFFFE"/>
</svg>
